# xmcd
#
# Track frame offsets:
#	150
#	10967
#	19660
#	30822
#	41980
#	53912
#	65665
#	75540
#	86420
#	97545
#	109127
#	122215
#	132632
#	145790
#	162747
#	176995
#	190665
#	201170
#	211932
#	225160
#
# Disc length: 3145 seconds
#
# Revision: 0
# Processed by: cddbd v1.5.1PL0 Copyright (c) Steve Scherf et al.
# Submitted via: audiograbber 1.83.01
#
DISCID=0b0c4714
DTITLE=Hank Locklin - The Masters
DYEAR=1900
DGENRE=Country
TTITLE0=Hello Darlin'
TTITLE1=Singing The Blues
TTITLE2=The Last Thing On My Mind
TTITLE3=Send Me The Pillow
TTITLE4=Blue Eyes Crying In The Rain
TTITLE5=Blue Moon Of Kentucky
TTITLE6=It's Only Make Believe
TTITLE7=Before The Next Teardrop Falls
TTITLE8=Once A Day
TTITLE9=One Minute Past Eternity
TTITLE10=Cry Cry Darling
TTITLE11=I'll Hold You In My Heart
TTITLE12=Walking The Floor Over You
TTITLE13=No One Will Ever Know
TTITLE14=Signed, Sealed And Delivered
TTITLE15=Almost
TTITLE16=Long Gone Lonesome Blues
TTITLE17=One Has My Name (The Other Has My Heart)
TTITLE18=Please Help Me I'm Falling
TTITLE19=They'll Never Take Her Love From Me
EXTD=
EXTT0=
EXTT1=
EXTT2=
EXTT3=
EXTT4=
EXTT5=
EXTT6=
EXTT7=
EXTT8=
EXTT9=
EXTT10=
EXTT11=
EXTT12=
EXTT13=
EXTT14=
EXTT15=
EXTT16=
EXTT17=
EXTT18=
EXTT19=
PLAYORDER=
